<svg width="547.67059" height="369.94785" xmlns="http://www.w3.org/2000/svg">
 <metadata id="metadata7">image/svg+xml</metadata>
 <g>
  <title>Layer 1</title>
  <g id="layer1">
   <rect id="rect4170" width="547.30255" height="367.40216" x="-0.00006" y="-0.00003" stroke-dashoffset="0" stroke-miterlimit="4" stroke-width="1.97505px" fill-rule="nonzero" fill="white"/>
   <path d="m254.521973,333.571625c-20.161865,-8.676453 -27.36026,-33.267639 -21.905731,-53.246887c2.942993,-15.252319 4.399628,-33.322693 -5.737274,-45.991165c-12.255951,-12.929367 -28.683319,-17.931335 -44.275177,-9.807358c-20.361877,6.119446 -46.310455,0.753052 -56.314728,-19.738037c-11.578926,-22.404663 -1.71994,-55.485672 24.11142,-62.330612c16.421539,-5.148499 33.013153,2.002121 49.166046,3.957977c14.998383,-4.474106 33.594574,-13.724289 33.955109,-31.787399c1.167572,-19.750183 -3.450317,-39.833191 0.333649,-59.368011c8.333374,-18.371922 29.732666,-28.166992 49.241028,-23.653782c18.372681,2.55447 34.606934,19.872768 32.225708,39.02203c0.949219,14.222778 -3.632813,28.159271 -2.713196,42.261261c3.585876,23.903694 32.582703,40.642296 54.734863,29.464867c23.968445,-9.444 56.759338,7.21759 58.018677,34.267761c3.339233,21.336609 -8.881165,46.014648 -31.548035,49.826721c-20.095337,5.120117 -42.102478,-9.695435 -62.404968,-1.113403c-14.688232,6.208923 -17.885559,19.892639 -19.122253,34.055557c0.849915,18.209961 8.432556,38.008057 0.036072,55.411865c-7.947693,15.349243 -25.131836,23.231018 -42.009216,21.52771c-5.330566,-0.231323 -10.816833,-0.679626 -15.791992,-2.759094z" id="path9498" stroke-width="2.53381" stroke="blue" fill="none"/>
   <path d="m109.06842,286.239105c-38.262512,-8.268005 -70.145599,-40.521484 -79.086491,-78.401321c-0.612339,-23.587891 -4.636021,-49.400146 8.12714,-70.72464c22.31448,-46.522606 81.80365,-70.459496 129.862885,-51.034874c29.683624,11.362823 48.208542,41.446167 80.144379,48.417824c36.160156,11.555389 75.669678,-4.185791 101.40094,-30.285347c37.200562,-32.931458 98.00116,-32.830139 134.851746,0.590881c19.500854,17.822884 36.461182,42.805824 33.775269,70.441139c0.83136,23.780319 -0.466248,49.450378 -16.671936,68.48082c-27.080566,40.935013 -85.254272,56.100052 -129.036255,33.958084c-27.725281,-12.732666 -46.14325,-42.468216 -78.24054,-46.087296c-22.635742,-6.594788 -47.184265,-0.823242 -67.809113,9.378052c-17.249481,10.245911 -29.564423,26.904495 -48.203613,35.134598c-20.456573,12.088257 -46.122528,13.203522 -69.11441,10.13208z" id="path8609" stroke-miterlimit="4" stroke-width="3.80071" stroke="#009600" fill="none"/>
   <path d="m284.392273,301.590424c5.097473,-4.009705 6.594116,-7.86084 7.554199,-19.438721c0.983398,-11.858521 2.417603,-15.411438 8.026123,-19.883484c8.825867,-7.037476 22.264526,-7.277527 30.68927,3.704651c5.30542,6.915894 15.578918,11.370728 24.937866,6.741943c5.067749,-2.506409 8.642273,-7.408142 8.801086,-12.569458c0.194763,-6.329712 -0.922546,-10.688431 -4.356384,-14.122253c-10.335388,-10.335388 -13.290283,-17.192322 -11.506409,-26.701172c2.157898,-11.502869 9.342651,-15.545898 23.34375,-15.545898c8.251221,0 12.487854,-1.534302 17.172852,-6.21936c13.440674,-13.440613 3.137024,-32.859192 -17.851807,-32.859192c-8.972168,0 -13.054871,-1.422363 -17.851868,-6.21936c-10.053467,-10.053467 -7.706482,-22.699188 6.929321,-37.334961c6.026428,-6.026459 5.820496,-15.060547 -0.509583,-22.359276c-7.439453,-8.577736 -18.459961,-7.752869 -28.673096,2.146088c-6.173035,5.983147 -10.592834,8.023743 -17.378845,8.023743c-14.233032,0 -20.360046,-6.674072 -21.773376,-23.717529c-0.969238,-11.68692 -2.437134,-15.400276 -7.735168,-19.567726c-13.115936,-10.316956 -28.29567,0.203224 -28.29567,19.609955c0,21.799255 -21.560349,31.675346 -37.243118,17.059837c-9.402985,-8.763092 -17.624252,-11.768517 -23.536621,-8.60434c-14.000519,7.492859 -16.56311,19.189117 -6.425354,29.326897c12.713928,12.713898 14.821289,24.012711 6.460999,34.641113c-3.985413,5.066589 -7.868683,6.594727 -19.132202,7.528809c-16.789032,1.392273 -22.489532,6.074036 -22.489532,18.470276c0,12.396301 5.7005,17.078064 22.489532,18.470352c11.263519,0.934067 15.14679,2.462219 19.132202,7.528809c7.211304,9.167709 6.321442,19.195313 -2.605713,29.362778c-10.059143,11.456741 -11.742126,21.364395 -4.978699,29.309525c5.961578,7.003174 18.713806,7.940674 23.712097,2.417542c17.302124,-19.119034 44.616425,-13.904968 44.616425,10.514038c0,12.512085 3.470398,19.727905 10.934326,22.735168c8.291443,3.340698 10.59137,3.019714 17.543396,-2.448792z" id="path2376" stroke-width="2.53381" stroke="fuchsia" fill="none"/>
   <path id="path2378" d="m367.292786,179.276413a93.422913,106.220558 0 1 1 -186.84581,0a93.422913,106.220558 0 1 1 186.84581,0z" stroke-dashoffset="0" stroke-miterlimit="4" marker-end="none" marker-mid="none" marker-start="none" stroke-width="1px" fill-rule="nonzero" fill="none"/>
   <path id="path3265" d="m376.931732,181.037018a101.619667,101.619667 0 1 1 -203.239334,0a101.619667,101.619667 0 1 1 203.239334,0z" stroke-dashoffset="0" stroke-miterlimit="4" marker-end="none" marker-mid="none" marker-start="none" stroke-width="1.01735" stroke="black" fill-rule="nonzero" fill="none"/>
   <path id="path6829" d="m288.628754,1.31673c-9.603668,0.01655 -17.385071,8.30396 -17.400604,18.53217l0,330.411171c0.015533,10.22821 7.796936,18.515625 17.400604,18.532166l240.485504,0c9.603699,-0.016541 17.385071,-8.303955 17.400635,-18.532166l0,-330.411171c-0.015564,-10.228209 -7.796936,-18.51562 -17.400635,-18.53217l-240.485504,0z" stroke-dashoffset="0" stroke-miterlimit="4" marker-end="none" marker-mid="none" marker-start="none" stroke-width="0.94118px" stroke="black" fill-rule="nonzero" fill="none"/>
   <path id="path6835" d="m23.30287,185.522446c-10.49618,0.000961 -19.00478,8.087997 -19.00578,18.064148l0,147.222885c0.00101,9.976135 8.5096,18.063202 19.00578,18.064148l504.28673,0c10.496155,-0.000946 19.004761,-8.088013 19.005798,-18.064148l0,-147.222885c-0.001038,-9.976151 -8.509644,-18.063187 -19.005798,-18.064148l-504.28673,0z" stroke-dashoffset="0" stroke-miterlimit="4" marker-end="none" marker-mid="none" marker-start="none" stroke-width="1px" stroke="red" fill-rule="nonzero" fill="none"/>
  </g>
  <text fill="#000000" stroke="#000000" stroke-width="0" x="122.83527" y="337.05215" id="svg_1" font-size="24" font-family="Sans-serif" text-anchor="middle" xml:space="preserve">11</text>
  <text fill="#000000" stroke="#000000" stroke-width="0" x="414.83527" y="48.05215" id="svg_2" font-size="24" font-family="Sans-serif" text-anchor="middle" xml:space="preserve">10</text>
  <text fill="#000000" stroke-width="0" x="31.83527" y="-42.94785" id="svg_3" font-size="24" font-family="Sans-serif" text-anchor="middle" xml:space="preserve" stroke="#000000"/>
  <text stroke="#000000" xml:space="preserve" text-anchor="middle" font-family="serif" font-size="24" id="svg_4" y="146.052155" x="91.835266" stroke-width="0" fill="#000000">8</text>
  <text xml:space="preserve" text-anchor="middle" font-family="serif" font-size="24" id="svg_5" y="64.052155" x="251.835266" stroke-linecap="null" stroke-linejoin="null" stroke-dasharray="null" stroke-width="0" stroke="#000000" fill="#000000">5</text>
  <text xml:space="preserve" text-anchor="middle" font-family="serif" font-size="15" id="svg_6" y="104.052155" x="201.835266" stroke-linecap="null" stroke-linejoin="null" stroke-dasharray="null" stroke-width="0" stroke="#000000" fill="#000000">5</text>
  <text xml:space="preserve" text-anchor="middle" font-family="serif" font-size="15" id="svg_7" y="104.052155" x="226.835266" stroke-linecap="null" stroke-linejoin="null" stroke-dasharray="null" stroke-width="0" stroke="#000000" fill="#000000">3</text>
  <text xml:space="preserve" text-anchor="middle" font-family="serif" font-size="20" id="svg_8" y="222.052155" x="362.835266" stroke-linecap="null" stroke-linejoin="null" stroke-dasharray="null" stroke-width="0" stroke="#000000" fill="#000000">7</text>
 </g>
</svg>